<svg xmlns="http://www.w3.org/2000/svg" version="1.1" xmlns:xlink="http://www.w3.org/1999/xlink" xmlns:svgjs="http://svgjs.dev/svgjs" width="1000" height="750" viewBox="0 0 1000 750"><rect width="1000" height="750" fill="#ffffff"></rect><g transform="matrix(0.584,0,0,0.584,207.9169461077845,82.91694610778441)"><svg viewBox="0 0 334 334" data-background-color="#ffffff" preserveAspectRatio="xMidYMid meet" height="1000" width="1000" xmlns="http://www.w3.org/2000/svg" xmlns:xlink="http://www.w3.org/1999/xlink"><g id="tight-bounds" transform="matrix(1,0,0,1,0.04749999999998522,0.04750000000001364)"><svg viewBox="0 0 333.90454557049503 333.90454557049503" height="333.90454557049503" width="333.90454557049503"><g><svg></svg></g><g><svg viewBox="0 0 333.90454557049503 333.90454557049503" height="333.90454557049503" width="333.90454557049503"><g><path d="M0 166.952c0-92.205 74.747-166.952 166.952-166.952 92.205 0 166.952 74.747 166.953 166.952 0 92.205-74.747 166.952-166.953 166.953-92.205 0-166.952-74.747-166.952-166.953zM166.952 316.63c82.665 0 149.677-67.013 149.678-149.678 0-82.665-67.013-149.677-149.678-149.677-82.665 0-149.677 67.013-149.677 149.677 0 82.665 67.013 149.677 149.677 149.678z" data-fill-palette-color="tertiary" fill="#e8772e" stroke="transparent"></path><ellipse rx="160.27418187383762" ry="160.27418187383762" cx="166.95227278524752" cy="166.95227278524752" fill="#e8772e" stroke="transparent" stroke-width="0" fill-opacity="1" data-fill-palette-color="tertiary"></ellipse></g><g transform="matrix(1,0,0,1,98.21236861902952,71.17305217166896)"><svg viewBox="0 0 137.479808332436 191.55844122715712" height="191.55844122715712" width="137.479808332436"><g><svg viewBox="0 0 137.479808332436 191.55844122715712" height="191.55844122715712" width="137.479808332436"><g><svg viewBox="0 0 137.479808332436 191.55844122715712" height="191.55844122715712" width="137.479808332436"><g><svg viewBox="0 0 137.479808332436 191.55844122715712" height="191.55844122715712" width="137.479808332436"><g id="textblocktransform"><svg viewBox="0 0 137.479808332436 191.55844122715712" height="191.55844122715712" width="137.479808332436" id="textblock"><g><svg viewBox="0 0 137.479808332436 191.55844122715712" height="191.55844122715712" width="137.479808332436"><g transform="matrix(1,0,0,1,0,0)"><svg width="137.479808332436" viewBox="2.1279070377349854 -26.149999618530273 19.122093200683594 26.649999618530273" height="191.55844122715712" data-palette-color="#ffffff"><path d="M2.5-4.05L2.5-4.05Q2.1-4.65 2.13-5.23 2.15-5.8 2.75-6.15L2.75-6.15Q3.15-6.5 3.68-6.45 4.2-6.4 4.65-5.95L4.65-5.95Q6-4.2 7.93-3.13 9.85-2.05 12.5-2.05L12.5-2.05Q13.9-2.05 15.28-2.53 16.65-3 17.55-3.98 18.45-4.95 18.45-6.45L18.45-6.45Q18.45-8 17.55-8.95 16.65-9.9 15.23-10.45 13.8-11 12.2-11.4L12.2-11.4Q10.5-11.85 8.9-12.43 7.3-13 6.08-13.88 4.85-14.75 4.1-16 3.35-17.25 3.35-19.05L3.35-19.05Q3.35-21.15 4.5-22.75 5.65-24.35 7.63-25.25 9.6-26.15 12.1-26.15L12.1-26.15Q13.35-26.15 14.8-25.83 16.25-25.5 17.65-24.75 19.05-24 20.15-22.7L20.15-22.7Q20.6-22.25 20.6-21.68 20.6-21.1 20.1-20.65L20.1-20.65Q19.7-20.35 19.18-20.35 18.65-20.35 18.3-20.75L18.3-20.75Q17.1-22.1 15.45-22.8 13.8-23.5 11.9-23.5L11.9-23.5Q10.45-23.5 9.18-23.03 7.9-22.55 7.05-21.6 6.2-20.65 6.2-19.1L6.2-19.1Q6.3-17.65 7.23-16.75 8.15-15.85 9.68-15.25 11.2-14.65 13.1-14.15L13.1-14.15Q14.7-13.75 16.18-13.2 17.65-12.65 18.78-11.83 19.9-11 20.58-9.75 21.25-8.5 21.25-6.6L21.25-6.6Q21.25-4.4 20.03-2.8 18.8-1.2 16.75-0.35 14.7 0.5 12.2 0.5L12.2 0.5Q9.5 0.5 6.98-0.55 4.45-1.6 2.5-4.05Z" opacity="1" transform="matrix(1,0,0,1,0,0)" fill="#ffffff" class="wordmark-text-0" data-fill-palette-color="quaternary" id="text-0"></path></svg></g></svg></g></svg></g></svg></g><g></g></svg></g></svg></g></svg></g></svg></g><defs></defs></svg><rect width="333.90454557049503" height="333.90454557049503" fill="none" stroke="none" visibility="hidden"></rect></g></svg></g></svg>